<?xml version="1.0" standalone="no"?> <!DOCTYPE svg PUBLIC "-//W3C//DTD SVG 1.0//EN" "http://www.w3.org/TR/2001/REC-SVG-20010904/DTD/svg10.dtd" > <svg xmlns="http://www.w3.org/2000/svg" width="100%" height="100%">
<defs >
<font id="ProximaNova-Extrabld" horiz-adv-x="461" ><font-face
    font-family="ProximaNova-Extrabld"
    units-per-em="1000"
    panose-1="2 0 5 6 3 0 0 2 0 4"
    ascent="920"
    descent="-298"
    alphabetic="0" />
<missing-glyph horiz-adv-x="471" d="M411 -90H60V752H411V-90ZM379 -60V722H91V-60H379Z" />
<glyph unicode=" " glyph-name="space" horiz-adv-x="256" />
<glyph unicode="!" glyph-name="exclam" horiz-adv-x="268" d="M203 233H66L42 667H226L203 233ZM172 -11T134 -11T69 16T41 82T68 148T134 176T200 148T228 82T200 17Z" />
<glyph unicode="&quot;" glyph-name="quotedbl" horiz-adv-x="438" d="M152 357H87Q39 576 39 597Q39 630 62 653T119 677T176 654T200 597Q200 588 188 528T164 412L152 357ZM351 357H287Q239 576 239 597Q239 630 262 653T319 677Q352 677 375 654T399 597Q399
588 387 528T363 412L351 357Z" />
<glyph unicode="#" glyph-name="numbersign" horiz-adv-x="632" d="M358 0H247L302 164H215L161 0H51L105 164H14L45 259H138L186 407H94L124 501H219L274 667H384L329 501H415L470 667H581L525 501H618L589 407H494L444 259H540L510 164H412L358 0ZM333 259L383
407H297L248 259H333Z" />
<glyph unicode="$" glyph-name="dollar" horiz-adv-x="625" d="M264 -100V-9Q116 5 24 94L115 223Q203 135 328 135Q372 135 397 150T423 190Q423 211 395 224T325 244T234 265T143 299T73 362T45 465Q45 544 103 603T264 674V768H375V673Q496 656 582 584L488
461Q404 530 293 530Q221 530 221 482Q221 459 260 446T354 421T464 390T559 326T598 211Q598 120 540 62T375 -9V-100H264Z" />
<glyph unicode="%" glyph-name="percent" horiz-adv-x="771" d="M196 343Q119 343 71 390T23 509Q23 581 71 629T196 677Q275 677 323 629T372 509Q372 438 324 391T196 343ZM216 0H130L556 667H643L216 0ZM573 -12Q496 -12 448 35T400 154Q400 226 448 274T573
322Q651 322 699 274T748 154Q748 83 700 36T573 -12ZM166 435T196 435T245 454T265 509Q265 545 246 565T196 585T148 565T129 509Q129 474 147 455ZM573 80Q604 80 623 99T642 154T623 210T573 230T525 210T506 154T524 99T573 80Z" />
<glyph unicode="&amp;" glyph-name="ampersand" horiz-adv-x="649" d="M651 0H459L419 41Q339 -12 245 -12Q146 -12 82 39T18 185Q18 254 55 298T159 374Q119 454 119 514Q119 583 176 630T321 677Q398 677 453 637T508 531Q508 462 466 423T347 350Q367 324 395
289Q411 267 441 232Q476 288 496 350L617 293Q575 203 523 138Q577 77 651 0ZM267 107Q302 107 339 128Q291 181 276 202Q239 249 217 280Q179 247 179 200Q179 159 205 133T267 107ZM271 511Q271 479 294 433Q335 452 356 472T377 522Q377 543 364 555T329 568Q304
568 288 552T271 511Z" />
<glyph unicode="&apos;" glyph-name="quotesingle" horiz-adv-x="239" d="M152 357H87Q39 576 39 597Q39 630 62 653T119 677T176 654T200 597Q200 588 188 528T164 412L152 357Z" />
<glyph unicode="(" glyph-name="parenleft" horiz-adv-x="322" d="M304 -124L207 -199Q131 -123 85 -1T39 243T85 487T207 685L304 611Q251 521 228 435T204 243Q204 138 227 52T304 -124Z" />
<glyph unicode=")" glyph-name="parenright" horiz-adv-x="322" d="M115 -199L18 -124Q117 45 117 243Q117 349 94 435T18 611L115 685Q191 609 237 487T283 243T237 -1T115 -199Z" />
<glyph unicode="*" glyph-name="asterisk" horiz-adv-x="357" d="M215 355H142L147 462L57 404L21 467L116 516L21 565L57 627L147 570L142 677H215L209 570L299 627L336 565L241 516L336 467L299 404L209 462L215 355Z" />
<glyph unicode="+" glyph-name="plus" horiz-adv-x="507" d="M478 291H304V93H203V291H29V383H203V574H304V383H478V291Z" />
<glyph unicode="," glyph-name="comma" horiz-adv-x="268" d="M234 61Q234 -62 120 -142L56 -90Q81 -77 107 -49T141 5Q126 2 118 2Q85 2 63 25T40 84Q40 122 67 149T132 176Q174 176 204 145T234 61Z" />
<glyph unicode="-" glyph-name="hyphen" horiz-adv-x="300" d="M270 178H30V307H270V178Z" />
<glyph unicode="." glyph-name="period" horiz-adv-x="270" d="M172 -12T134 -12T68 16T40 82T68 148T134 176T200 148T228 82T200 16Z" />
<glyph unicode="/" glyph-name="slash" horiz-adv-x="346" d="M109 -20H0L237 687H346L109 -20Z" />
<glyph unicode="0" glyph-name="zero" horiz-adv-x="624" d="M383 -12T312 -12T186 17T96 95T44 204T26 333Q26 425 56 501T152 627T312 677T471 627T568 501T598 333Q598 265 581 205T529 95T439 17ZM200 140T312 140T424 333Q424 525 312 525T200 333Q200 140 312 140Z" />
<glyph unicode="1" glyph-name="one" horiz-adv-x="447" d="M387 0H215V447L103 334L5 437L238 667H387V0Z" />
<glyph unicode="2" glyph-name="two" horiz-adv-x="607" d="M567 0H44V134Q266 294 326 350T387 455Q387 488 361 506T295 525Q195 525 117 452L22 566Q73 622 145 649T292 677Q411 677 486 616T562 455Q562 380 506 309T323 150H567V0Z" />
<glyph unicode="3" glyph-name="three" horiz-adv-x="602" d="M292 -12Q200 -12 129 17T16 93L103 210Q137 176 187 158T285 140Q339 140 368 158T397 205T371 247T278 261Q198 261 188 260V413Q201 412 278 412Q386 412 386 464Q386 494 355 509T274 525Q180
525 108 461L25 569Q121 677 292 677Q418 677 487 628T557 494Q557 437 515 396T411 344Q471 338 519 296T568 186Q568 98 492 43T292 -12Z" />
<glyph unicode="4" glyph-name="four" horiz-adv-x="616" d="M514 0H341V122H22V256L275 667H514V273H595V122H514V0ZM341 273V517L189 273H341Z" />
<glyph unicode="5" glyph-name="five" horiz-adv-x="617" d="M309 -12Q139 -12 40 85L134 205Q205 140 307 140Q359 140 387 162T416 217Q416 252 389 273T312 294Q233 294 180 244L61 273V667H545V517H233V388Q288 441 376 441T527 381T591 224Q591 116 515 52T309 -12Z" />
<glyph unicode="6" glyph-name="six" horiz-adv-x="617" d="M329 -12Q178 -12 102 83T26 332Q26 491 115 584T356 677Q477 677 559 613L484 481Q430 525 356 525Q293 525 247 483T200 373V365Q225 399 269 420T364 441Q460 441 527 383T595 222Q595 119 520 54T329
-12ZM318 140Q364 140 392 163T421 216Q421 255 389 275T312 295Q244 295 200 250Q204 204 233 172T318 140Z" />
<glyph unicode="7" glyph-name="seven" horiz-adv-x="560" d="M309 0H120L346 517H21V667H544V548L309 0Z" />
<glyph unicode="8" glyph-name="eight" horiz-adv-x="618" d="M309 -12Q191 -12 109 36T26 176Q26 231 63 276T161 344Q37 391 37 499Q37 545 60 580T124 636T211 667T309 677Q379 677 438 660T539 602T581 499Q581 392 456 344Q516 321 553 276T591 176Q591 114
550 70T446 7T309 -12ZM309 411Q346 416 375 432T405 474Q405 502 379 518T309 534Q265 534 239 518T212 474Q212 449 242 433T309 411ZM309 131Q356 131 386 149T417 196Q417 224 382 242T309 266Q270 261 236 243T201 196Q201 167 231 149T309 131Z" />
<glyph unicode="9" glyph-name="nine" horiz-adv-x="617" d="M260 -11Q138 -11 58 53L132 185Q186 141 260 141Q330 141 373 185T416 293V301Q391 267 347 246T253 224Q158 224 90 283T21 444Q21 547 96 612T287 678Q438 678 514 583T590 334Q590 175 501 82T260
-11ZM304 371Q374 371 416 416Q413 462 384 494T297 526Q252 526 224 503T196 450Q196 411 228 391T304 371Z" />
<glyph unicode=":" glyph-name="colon" horiz-adv-x="259" d="M172 302T134 302T68 330T40 396T68 462T134 490T200 462T228 396T200 330ZM172 -12T134 -12T68 16T40 82T68 148T134 176T200 148T228 82T200 16Z" />
<glyph unicode=";" glyph-name="semicolon" horiz-adv-x="268" d="M172 302T134 302T68 330T40 397T68 462T134 490T200 463T228 397T200 331ZM234 62Q234 -60 120 -140L56 -88Q81 -76 107 -48T141 7Q131 3 118 3Q85 3 63 26T40 86Q40 124 67 151T132 178Q175
178 204 147T234 62Z" />
<glyph unicode="&lt;" glyph-name="less" horiz-adv-x="507" d="M478 90L29 279V390L478 580V470L133 334L478 199V90Z" />
<glyph unicode="=" glyph-name="equal" horiz-adv-x="507" d="M478 381H29V473H478V381ZM478 195H29V287H478V195Z" />
<glyph unicode="&gt;" glyph-name="greater" horiz-adv-x="507" d="M478 279L29 90V199L374 334L29 470V580L478 390V279Z" />
<glyph unicode="?" glyph-name="question" horiz-adv-x="453" d="M166 214Q135 252 135 306Q135 337 148 362T181 404T219 433T251 459T265 486Q265 525 206 525Q146 525 101 473L5 583Q45 629 103 653T225 677Q323 677 381 633T439 517Q439 477 423 446T385 396T339
360T300 326T284 288Q284 263 299 248L166 214ZM265 -12T227 -12T161 16T133 82T161 148T227 176T293 148T321 82T293 16Z" />
<glyph unicode="@" glyph-name="at" horiz-adv-x="783" d="M352 -70Q216 -70 126 20T35 244Q35 402 155 520T432 638Q573 638 660 551T747 337Q747 275 727 225T675 146T607 101T537 85Q454 85 436 155L435 162Q409 125 373 105T298 85Q226 85 184 133T142 256Q142
353 209 425T364 497Q450 497 487 436L497 484H633L584 254Q582 244 582 228Q582 187 614 187Q647 187 674 226T701 337Q701 455 627 525T428 596Q287 596 182 492T77 247Q77 129 156 50T357 -29Q451 -29 537 25L560 -7Q462 -70 352 -70ZM355 192Q407 192 447 245L469
351Q447 391 399 391Q348 391 315 354T282 268Q282 233 301 213T355 192Z" />
<glyph unicode="A" glyph-name="A" horiz-adv-x="697" d="M708 0H513L480 96H217L184 0H-11L240 667H456L708 0ZM433 246L348 497L263 246H433Z" />
<glyph unicode="B" glyph-name="B" horiz-adv-x="680" d="M450 0H60V667H438Q531 667 582 617T633 497Q633 437 601 396T519 344Q573 336 609 290T646 181Q646 104 595 52T450 0ZM399 411Q425 411 441 426T458 467Q458 491 442 506T399 522H232V411H399ZM405 145Q436
145 453 161T471 205Q471 231 454 248T405 265H232V145H405Z" />
<glyph unicode="C" glyph-name="C" horiz-adv-x="692" d="M387 -12Q232 -12 129 84T26 333Q26 486 128 582T387 678Q588 678 678 499L530 429Q513 470 474 498T387 526Q306 526 254 471T201 333T253 196T387 140Q434 140 473 168T530 237L678 167Q640 91 569 40T387 -12Z" />
<glyph unicode="D" glyph-name="D" horiz-adv-x="727" d="M341 0H60V667H340Q500 667 600 577T701 334T601 91T341 0ZM340 150Q425 150 475 203T525 334Q525 415 477 466T341 517H232V150H340Z" />
<glyph unicode="E" glyph-name="E" horiz-adv-x="589" d="M549 0H60V667H549V517H232V413H542V263H232V150H549V0Z" />
<glyph unicode="F" glyph-name="F" horiz-adv-x="582" d="M232 0H60V667H549V517H232V413H542V263H232V0Z" />
<glyph unicode="G" glyph-name="G" horiz-adv-x="723" d="M387 -12Q234 -12 130 83T26 333T130 583T387 678Q491 678 562 632T672 516L528 441Q508 477 471 501T387 526Q306 526 254 471T201 333T253 196T387 140Q422 140 456 152T510 180V232H360V383H682V118Q564
-12 387 -12Z" />
<glyph unicode="H" glyph-name="H" horiz-adv-x="741" d="M681 0H509V268H232V0H60V667H232V418H509V667H681V0Z" />
<glyph unicode="I" glyph-name="I" horiz-adv-x="292" d="M232 0H60V667H232V0Z" />
<glyph unicode="J" glyph-name="J" horiz-adv-x="492" d="M186 -12Q71 -12 3 48L75 179Q122 140 171 140Q212 140 236 164T260 231V667H432V229Q432 109 366 49T186 -12Z" />
<glyph unicode="K" glyph-name="K" horiz-adv-x="654" d="M663 0H452L277 251L232 195V0H60V667H232V393L437 667H649L390 355L663 0Z" />
<glyph unicode="L" glyph-name="L" horiz-adv-x="529" d="M500 0H60V667H232V150H500V0Z" />
<glyph unicode="M" glyph-name="M" horiz-adv-x="877" d="M817 0H645V434L476 0H400L232 434V0H60V667H299L438 305L578 667H817V0Z" />
<glyph unicode="N" glyph-name="N" horiz-adv-x="740" d="M680 0H514L232 386V0H60V667H237L507 300V667H680V0Z" />
<glyph unicode="O" glyph-name="O" horiz-adv-x="766" d="M537 -12T383 -12T128 85T26 333T127 581T383 678T638 581T739 333T638 85ZM383 140Q464 140 514 195T564 333T514 471T383 526Q301 526 251 471T201 333T251 195T383 140Z" />
<glyph unicode="P" glyph-name="P" horiz-adv-x="643" d="M232 0H60V667H394Q502 667 564 604T626 445Q626 351 564 288T394 224H232V0ZM371 374Q406 374 428 393T451 445Q451 479 429 498T371 517H232V374H371Z" />
<glyph unicode="Q" glyph-name="Q" horiz-adv-x="766" d="M383 -12Q229 -12 128 85T26 333T127 581T383 678T638 581T739 333Q739 196 655 102L697 51L577 -45L528 15Q458 -12 383 -12ZM383 140Q405 140 422 144L361 218L480 314L543 238Q564 283 564 333Q564
416 514 471T383 526Q301 526 251 471T201 333T251 195T383 140Z" />
<glyph unicode="R" glyph-name="R" horiz-adv-x="661" d="M629 0H432L320 224H232V0H60V667H394Q502 667 564 604T626 445Q626 365 587 315T493 245L629 0ZM368 374Q403 374 427 393T451 446Q451 479 427 498T368 517H232V374H368Z" />
<glyph unicode="S" glyph-name="S" horiz-adv-x="606" d="M308 -12Q123 -12 12 94L103 223Q191 135 316 135Q360 135 385 150T411 190Q411 211 383 224T313 244T222 265T131 299T61 362T33 465Q33 553 104 615T299 677Q462 677 570 584L476 461Q392 530 281 530Q209
530 209 482Q209 463 237 450T307 429T397 408T488 373T558 311T586 211Q586 109 513 49T308 -12Z" />
<glyph unicode="T" glyph-name="T" horiz-adv-x="589" d="M381 0H209V517H22V667H567V517H381V0Z" />
<glyph unicode="U" glyph-name="U" horiz-adv-x="750" d="M376 -12Q220 -12 140 65T60 270V667H235V276Q235 215 271 178T376 140Q443 140 479 177T516 276V667H690V271Q690 142 611 65T376 -12Z" />
<glyph unicode="V" glyph-name="V" horiz-adv-x="697" d="M456 0H240L-11 667H184L348 186L513 667H708L456 0Z" />
<glyph unicode="W" glyph-name="W" horiz-adv-x="936" d="M751 0H569L468 418L367 0H185L-6 667H187L288 222L402 667H534L648 222L748 667H942L751 0Z" />
<glyph unicode="X" glyph-name="X" horiz-adv-x="676" d="M686 0H483L338 224L193 0H-11L222 342L4 667H207L338 458L467 667H671L454 343L686 0Z" />
<glyph unicode="Y" glyph-name="Y" horiz-adv-x="655" d="M414 0H242V269L-11 667H183L328 421L471 667H666L414 269V0Z" />
<glyph unicode="Z" glyph-name="Z" horiz-adv-x="596" d="M557 0H39V137L323 517H39V667H550V530L265 150H557V0Z" />
<glyph unicode="[" glyph-name="bracketleft" horiz-adv-x="298" d="M281 -190H51V678H281V579H159V-91H281V-190Z" />
<glyph unicode="\" glyph-name="backslash" horiz-adv-x="346" d="M237 -20L0 687H109L346 -20H237Z" />
<glyph unicode="]" glyph-name="bracketright" horiz-adv-x="298" d="M248 -190H18V-91H140V579H18V678H248V-190Z" />
<glyph unicode="^" glyph-name="asciicircum" horiz-adv-x="445" d="M426 333H317L223 564L130 333H19L168 667H279L426 333Z" />
<glyph unicode="_" glyph-name="underscore" horiz-adv-x="564" d="M567 -139H-3V-40H567V-139Z" />
<glyph unicode="`" glyph-name="grave" horiz-adv-x="263" d="M263 556H159L0 700H136L263 556Z" />
<glyph unicode="a" glyph-name="a" horiz-adv-x="551" d="M495 0H341V48Q318 21 278 5T191 -12Q128 -12 77 29T25 147Q25 227 75 264T191 302Q296 302 341 246V304Q341 336 315 355T243 374Q166 374 106 323L51 420Q139 495 270 495Q316 495 354 486T425 455T476
395T495 302V0ZM255 89Q317 89 341 124V167Q316 201 255 201Q222 201 200 187T178 145T200 104T255 89Z" />
<glyph unicode="b" glyph-name="b" horiz-adv-x="591" d="M210 167Q224 148 250 136T302 124Q349 124 379 156T409 242Q409 295 379 327T302 359Q277 359 251 347T210 315V167ZM210 0H56V667H210V426Q265 495 353 495Q445 495 505 427T566 242Q566 123 506 56T353
-12Q269 -12 210 56V0Z" />
<glyph unicode="c" glyph-name="c" horiz-adv-x="500" d="M288 -12Q174 -12 99 58T24 242Q24 354 99 424T288 495Q360 495 410 469T486 406L386 313Q355 359 295 359Q246 359 214 328T182 242T214 156T295 124Q353 124 386 171L486 77Q461 40 411 14T288 -12Z" />
<glyph unicode="d" glyph-name="d" horiz-adv-x="591" d="M534 0H381V56Q322 -12 238 -12Q145 -12 85 55T24 242Q24 358 84 426T238 495Q325 495 381 426V667H534V0ZM288 124Q313 124 339 136T381 168V316Q366 335 340 347T288 359Q241 359 212 327T182 242T212
157T288 124Z" />
<glyph unicode="e" glyph-name="e" horiz-adv-x="548" d="M288 -12Q174 -12 99 57T24 242Q24 349 96 422T281 495Q390 495 459 422T528 226V193H184Q191 157 223 132T305 107Q333 107 369 118T425 148L490 52Q455 21 401 5T288 -12ZM381 293Q377 325 353 350T281
376Q236 376 212 351T182 293H381Z" />
<glyph unicode="f" glyph-name="f" horiz-adv-x="349" d="M243 0H89V349H9V483H89V507Q89 583 137 630T262 677Q354 677 401 629L344 541Q326 560 296 560Q273 560 258 546T243 507V483H341V349H243V0Z" />
<glyph unicode="g" glyph-name="g" horiz-adv-x="590" d="M257 -196Q131 -196 43 -124L110 -14Q162 -70 257 -70Q305 -70 342 -45T380 41V78Q320 8 237 8Q144 8 84 71T24 252Q24 368 83 431T237 495Q324 495 380 426V483H533V43Q533 -14 516 -57T471 -126T406
-168T332 -190T257 -196ZM288 144Q313 144 339 156T380 187V316Q366 335 340 347T288 359Q241 359 212 331T182 252Q182 200 211 172T288 144Z" />
<glyph unicode="h" glyph-name="h" horiz-adv-x="594" d="M538 0H384V281Q384 359 304 359Q249 359 211 312V0H57V667H211V424Q272 495 378 495Q458 495 498 455T538 344V0Z" />
<glyph unicode="i" glyph-name="i" horiz-adv-x="266" d="M170 526T133 526T71 552T45 615T70 677T133 703T195 678T221 615T196 552ZM210 0H56V483H210V0Z" />
<glyph unicode="j" glyph-name="j" horiz-adv-x="266" d="M170 526T133 526T71 552T45 615T70 677T133 703T195 678T221 615T196 552ZM23 -196Q-24 -196 -49 -189T-104 -162L-65 -49Q-38 -70 -3 -70Q56 -70 56 4V483H210V4Q210 -88 163 -142T23 -196Z" />
<glyph unicode="k" glyph-name="k" horiz-adv-x="546" d="M552 0H362L256 171L210 116V0H56V667H210V290L357 483H543L365 263L552 0Z" />
<glyph unicode="l" glyph-name="l" horiz-adv-x="266" d="M210 0H56V667H210V0Z" />
<glyph unicode="m" glyph-name="m" horiz-adv-x="875" d="M818 0H665V294Q665 359 601 359Q549 359 514 312V0H360V294Q360 359 296 359Q248 359 210 312V0H56V483H210V424Q229 449 273 472T369 495Q476 495 506 409Q529 444 574 469T673 495Q742 495 780 459T818 350V0Z" />
<glyph unicode="n" glyph-name="n" horiz-adv-x="593" d="M537 0H383V279Q383 359 304 359Q248 359 210 312V0H56V483H210V424Q271 495 377 495Q457 495 497 454T537 342V0Z" />
<glyph unicode="o" glyph-name="o" horiz-adv-x="576" d="M287 -12Q168 -12 96 62T24 242T96 421T287 495Q407 495 479 422T551 242T479 62T287 -12ZM238 124T287 124T364 157T393 242Q393 292 365 325T287 359T211 326T183 242Q183 191 210 158Z" />
<glyph unicode="p" glyph-name="p" horiz-adv-x="589" d="M353 -12Q268 -12 210 57V-184H56V483H210V427Q266 495 353 495Q447 495 506 428T565 242Q565 122 506 55T353 -12ZM302 124Q348 124 378 156T408 242Q408 295 378 327T302 359Q277 359 251 347T210 315V168Q224
149 250 137T302 124Z" />
<glyph unicode="q" glyph-name="q" horiz-adv-x="589" d="M288 124Q312 124 339 136T379 168V315Q365 334 339 346T288 359Q241 359 211 327T181 242Q181 188 211 156T288 124ZM236 -12Q142 -12 83 55T24 242Q24 361 83 428T236 495Q323 495 379 427V483H533V-184H379V57Q322
-12 236 -12Z" />
<glyph unicode="r" glyph-name="r" horiz-adv-x="375" d="M210 0H56V483H210V424Q235 454 277 475T361 496V348Q343 352 323 352Q291 352 258 340T210 308V0Z" />
<glyph unicode="s" glyph-name="s" horiz-adv-x="484" d="M241 -12Q176 -12 115 8T15 62L79 168Q107 143 157 124T249 104Q314 104 314 141Q314 158 285 166T215 181T133 201T62 248T33 336Q33 403 88 449T240 495Q354 495 442 431L383 329Q360 351 321 366T241
382Q214 382 197 372T180 347T209 325T279 310T361 288T432 239T461 148Q461 77 402 33T241 -12Z" />
<glyph unicode="t" glyph-name="t" horiz-adv-x="360" d="M239 -12Q165 -12 127 24T88 130V349H8V483H88V615H241V483H339V349H241V173Q241 151 252 138T284 124Q313 124 323 136L353 20Q319 -12 239 -12Z" />
<glyph unicode="u" glyph-name="u" horiz-adv-x="592" d="M536 0H382V58Q320 -12 215 -12Q135 -12 96 28T56 139V483H210V202Q210 124 290 124Q345 124 382 171V483H536V0Z" />
<glyph unicode="v" glyph-name="v" horiz-adv-x="524" d="M344 0H180L-10 483H152L261 177L371 483H534L344 0Z" />
<glyph unicode="w" glyph-name="w" horiz-adv-x="787" d="M650 0H484L393 299L303 0H137L-6 483H152L230 187L325 483H462L557 187L634 483H793L650 0Z" />
<glyph unicode="x" glyph-name="x" horiz-adv-x="512" d="M518 0H349L256 146L162 0H-6L159 248L4 483H173L256 352L338 483H507L353 248L518 0Z" />
<glyph unicode="y" glyph-name="y" horiz-adv-x="524" d="M46 -188L68 -51Q84 -60 106 -60Q160 -60 171 -33L182 -7L-10 483H152L261 177L371 483H534L316 -69Q289 -140 239 -167T112 -196Q72 -196 46 -188Z" />
<glyph unicode="z" glyph-name="z" horiz-adv-x="483" d="M445 0H38V113L232 349H38V483H441V374L243 133H445V0Z" />
<glyph unicode="{" glyph-name="braceleft" horiz-adv-x="302" d="M285 -190H225Q155 -190 105 -143T55 -19V137Q55 166 42 184T3 203V285Q28 285 41 303T55 351V506Q55 583 105 630T225 678H285V579H225Q199 579 181 559T163 506V334Q163 264 117 244Q163 224
163 154V-18Q163 -50 181 -70T225 -91H285V-190Z" />
<glyph unicode="|" glyph-name="bar" horiz-adv-x="219" d="M159 -20H60V687H159V-20Z" />
<glyph unicode="}" glyph-name="braceright" horiz-adv-x="302" d="M17 -190V-91H77Q103 -91 121 -71T139 -18V154Q139 224 185 244Q139 264 139 334V506Q139 539 121 559T77 579H17V678H77Q147 678 197 631T247 506V351Q247 322 260 304T299 285V203Q274 203
261 185T247 137V-19Q247 -96 197 -143T77 -190H17Z" />
<glyph unicode="~" glyph-name="asciitilde" horiz-adv-x="514" d="M388 667L488 655Q484 604 477 565T453 488T407 428T335 407Q290 407 263 433T227 491T208 549T180 576Q142 576 128 406L25 418Q29 470 37 508T61 586T108 646T180 667Q225 667 252 641T288
582T307 524T335 497Q375 497 388 667Z" />
</font>
</defs>
</svg>
